<?xml version="1.0" encoding="utf-8"?>
<!-- Generator: Adobe Illustrator 19.0.0, SVG Export Plug-In . SVG Version: 6.00 Build 0)  -->
<svg version="1.1" id="Layer_1" xmlns="http://www.w3.org/2000/svg" xmlns:xlink="http://www.w3.org/1999/xlink" x="0px" y="0px"
	 viewBox="0 0 900 900" style="enable-background:new 0 0 900 900;" xml:space="preserve">
<g id="XMLID_14_">
	<path id="XMLID_48_" d="M492.4,239.6v255.2l-43.2,44l43.2,44v216.8H299.6V601.2h-55.2v198.4H58.8v-560H492.4z M244.4,451.6h68v-44
		h-68V451.6z"/>
	<path id="XMLID_51_" d="M671.6,379.6v247.8l51-162.6v-85.2h144.6v117.6l-90,302.4H532.4v-420H671.6z"/>
</g>
<g id="XMLID_15_">
	<path id="XMLID_39_" d="M167.2,81v63.8l-10.8,11l10.8,11V221H119v-49.6h-13.8V221H58.8V81H167.2z M105.2,134h17v-11h-17V134z"/>
	<path id="XMLID_42_" d="M177.2,196.4V81h89.6v42h-48v7.8h48v40.6h-48v7.8h48V221h-76.6L177.2,196.4z"/>
	<path id="XMLID_44_" d="M306.2,81h80.6v140h-46.4v-83.8l-17.2,56.4V221h-46.4v-41.8L306.2,81z"/>
	<path id="XMLID_46_" d="M447.5,81v96.6h45V221h-82.2l-13.6-24.8V81H447.5z"/>
</g>
<g id="XMLID_16_">
	<path id="XMLID_18_" d="M561.9,143.6v52.9l10.9-34.7v-18.2h30.8v25.1l-19.2,64.5h-52.2v-89.6H561.9z"/>
	<path id="XMLID_20_" d="M645.2,143.6v89.6H610v-89.6H645.2z"/>
	<path id="XMLID_22_" d="M721,143.6v40.8l-6.9,7l6.9,7v34.7h-30.8v-31.7h-8.8v31.7h-29.7v-89.6H721z M681.3,177.6h10.9v-7h-10.9
		V177.6z"/>
	<path id="XMLID_25_" d="M727.4,171.5v-27.9h82.4L784,171.5h-11.9v61.7h-31.9v-61.7H727.4z"/>
	<path id="XMLID_27_" d="M828.3,143.6v61.8h11.9v-61.8H870v89.6h-72.4v-89.6H828.3z"/>
	<path id="XMLID_29_" d="M551,266.6h51.6v89.6h-29.7v-53.6l-11,36.1v17.5h-29.7v-26.8L551,266.6z"/>
	<path id="XMLID_31_" d="M641.5,266.6v61.8h28.8v27.8h-52.6l-8.7-15.9v-73.7H641.5z"/>
	<path id="XMLID_33_" d="M711.9,266.6v89.6h-35.2v-89.6H711.9z"/>
	<path id="XMLID_35_" d="M718.3,294.5v-27.9h82.4l-25.9,27.9H763v61.7h-31.9v-61.7H718.3z"/>
	<path id="XMLID_37_" d="M788.5,305.6v-38.9h28.8v24.8l7.9,8.1l7.9-8.1v-24.8h28.8v38.9l-20.9,20.9v29.8h-31.9v-29.8L788.5,305.6z"
		/>
</g>
<g id="XMLID_17_">
</g>
<g id="XMLID_53_">
</g>
<g id="XMLID_54_">
</g>
<g id="XMLID_55_">
</g>
<g id="XMLID_56_">
</g>
<g id="XMLID_57_">
</g>
<g id="XMLID_58_">
</g>
<g id="XMLID_59_">
</g>
<g id="XMLID_60_">
</g>
<g id="XMLID_61_">
</g>
<g id="XMLID_62_">
</g>
<g id="XMLID_63_">
</g>
<g id="XMLID_64_">
</g>
<g id="XMLID_65_">
</g>
<g id="XMLID_66_">
</g>
</svg>
